<svg xmlns="http://www.w3.org/2000/svg" viewBox="0 0 229.9 150.8"><style>.st0{fill:#fff}.st23{fill:#ffc7b6}.st24{fill:#ffe1cc}.st28{opacity:.5}.st81{fill:#272223}.st131{fill:#2b2829}.st134{fill:#ea7768}.st135{fill:#ffc373}.st136{fill:#ccc}.st138{fill:#2e3954}</style><g id="Layer_1"><path d="M115.7 20.2H3.7c-2 0-3.7 1.7-3.7 3.7V75c0 2 1.7 3.7 3.7 3.7h88l15.5 10.4c.8.5 1.9 0 1.9-1v-9.4h6.5c2 0 3.7-1.7 3.7-3.7V23.9c.1-2.1-1.6-3.7-3.6-3.7z" fill="#b7dcff"/><path d="M175.6 50.6v-4.9l-6.9 4.9-6.9-4.9v4.9c0 2.1-2.2 2.1-2.2 2.1l9.1 9.1 9.1-9.1c-.1.1-2.2.1-2.2-2.1z" fill="#f4d6b0"/><path d="M175.6 45.7l-6.9 4.9-6.9-4.9v5.1c3.8 1.7 6.9 1.8 6.9 1.8s3.1-.1 6.9-1.8v-5.1z" fill="#e0bb94"/><path class="st24" d="M209.5 81.4s3.4 15.8 1.9 19.7C210 105 193.3 120 193.3 120l-4-5.9s9.5-13.2 9.6-15.7c.1-2.4-3.4-9.1-3.4-9.1l14-7.9zm-79.7-1.3s-5 18.6-3.9 22.6 16.5 17.4 16.5 17.4l4.5-5.5s-8.2-13.5-8.1-15.9c.1-2.4 3.7-9.8 3.7-9.8l-12.7-8.8z"/><path class="st131" d="M190.7 57.9c-6.1-2.5-12.2-4.7-12.2-4.7-3.2 3.4-6.5 5.5-10 6.2-3.5-.7-6.8-2.8-10-6.2 0 0-18.7 6.7-23.7 10 0 0-4.9 8.4-8 24-.1.5.2 1 .7 1.1l13.4 3.9c.5.1 1-.1 1.1-.6l1.4-3.4s0 1.6-.1 4.1c-.1.1 35.6 0 47.4-34.4z"/><path d="M211.5 86.9c-5.1-17.4-9.4-23.6-9.4-23.6-2.2-1.4-6.9-3.5-11.5-5.4-11.8 34.5-47.5 34.5-47.5 34.5-.1 6.6-.2 19.7.5 27.6l24.8 3.3 24.8-3.3c.9-10.9.4-31.8.4-31.8l1.8 2.8c.3.5.9.7 1.5.6l13.6-3.1c.8-.1 1.3-.9 1-1.6z" fill="#231f20"/><path class="st131" d="M168.6 69.5c9 0 17.1-4.4 22-11.2l-11.8-5.1h-1.1l-2.9 3.3c-3.3 3.7-9 3.7-12.3 0l-2.9-3.3h-1.1l-11.9 5c4.9 6.8 12.9 11.3 22 11.3"/><path d="M177.2 52.1l-2.9 2.8c-3.2 3-8.1 3-11.3 0l-2.9-2.8-1.6 1.1 3.3 3.3c3.8 3.8 10 3.8 13.8 0l3.3-3.3-1.7-1.1z" fill="#808285"/><ellipse class="st23" cx="151.1" cy="28.1" rx="4.7" ry="5.5"/><ellipse class="st23" cx="186.1" cy="28.1" rx="4.7" ry="5.5"/><path class="st24" d="M156.8 11c-3.1 0-5.7 2.5-5.7 5.7v17.7c0 2.7 8 16.3 17.2 17.1 6.9.5 17.8-12.7 17.8-17.1V16.7c0-5.8 0-5.7-5.7-5.7h-23.6z"/><path d="M163.8 28.8c-.3 0-.6-.2-.6-.5-.1-.6-.8-1.8-2.6-1.8-2.3 0-2.8 1.6-2.8 1.7-.1.3-.4.5-.8.4-.3-.1-.5-.4-.4-.8.2-.9 1.4-2.6 4-2.6 2.3 0 3.6 1.5 3.9 2.8.1.3-.2.7-.5.7l-.2.1zm9.6 0h-.1c-.3-.1-.6-.4-.5-.7.2-1.4 1.5-2.8 3.9-2.8 2.7 0 3.8 1.7 4 2.6.1.3-.1.7-.4.8-.3.1-.7-.1-.8-.4 0-.1-.5-1.7-2.8-1.7-1.8 0-2.5 1.2-2.6 1.8-.1.2-.4.4-.7.4z" fill="#5c5d64"/><path class="st23" d="M173.1 33.2c0-.5-.7-.9-1.4-1.3-.9-.4-1.7-1.1-2.4-1.9-.5-.6-.9-.5-1.4.1-.6.8-1.4 1.4-2.3 1.8-.7.3-1.3.8-1.3 1.2 0 1 .8 1.8 1.7 1.8.5 1 1.5 1.8 2.7 1.8 1.2 0 2.2-.7 2.7-1.8.9.1 1.7-.7 1.7-1.7z"/><path class="st81" d="M164.1 22.4h-.2s-4.6-1.1-7.3.5c-.3.2-.7 0-.8-.5-.2-.5 0-1 .3-1.2 3-1.8 7.8-.7 8-.7.3.1.6.6.6 1.1-.1.4-.3.7-.6.8zm8.9 0h.2s4.6-1.1 7.3.5c.3.2.7 0 .8-.5.2-.5 0-1-.3-1.2-3-1.8-7.8-.7-8-.7-.3.1-.6.6-.6 1.1.1.4.3.7.6.8z"/><path d="M168.7 41.8c-2.8 0-4.8-1.4-4.8-1.5-.3-.2-.3-.6-.1-.9.2-.3.6-.3.9-.1.2.1 3.8 2.7 8 0 .3-.2.7-.1.9.2.2.3.1.7-.2.9-1.7 1-3.3 1.4-4.7 1.4z" fill="#dc9b80"/><path class="st23" d="M168.5 33.7c-1.2 0-2.2-1-2.2-2.2v-3.7c0-1.2 1-2.2 2.2-2.2 1.2 0 2.2 1 2.2 2.2v3.7c0 1.2-1 2.2-2.2 2.2z"/><path class="st81" d="M185.8 10.1c-.3-.5-.5-1-.8-1.4-3.1-4.3-8.9-6.5-14.7-6.8-6.6.6 0-1.6-1.1-1.8-8.3-1.2-16.5 7.1-16.5 7.1-.3.5-.7 1-.9 1.6-1.6 2.9-1.7 6.8-1.7 10.4 0 2.6.3 5 1.1 7.3 1.9.5 1.9-3 2.4-4.6.2-.6.4-1.2.5-1.8.9-2.3 2.1-2 2.9-3.2 1-1.5-3-6.2-3-6.2l2.6 1.9c1.6-.1 2.7 0 5 .7 1.9.5 6.6 4.2 13.1 4.2.2-.1-4.8-3.5-4.6-3.6 7.8 2.5 12 4 12.8 5.3.4 2.7-.4 8.7 3.1 7.3.8-2 .9-4.2.9-6.5.1-3.3.3-7.3-1.1-9.9z"/><path class="st81" d="M167.6 1.9s4.3-1.4 9.2-.8c4.9.5-2.7.7-2.2 2.9m8.2 31.8c-1.2 2.5-3.4 4.9-6.5 4.7-1.6-.1.3-2.3-1.3-3.2-1.2-.7-11.3-.7-12.5 0-1.6.9.3 3.1-1.3 3.2-3.1.2-5.3-2.3-6.5-4.7-1.2-2.4-3.5-3.2-3.5-3.2s0 4.8 2.5 8.5c3.8 5.6 8.8 8.6 12 10.1.3.1.6.3.9.4.7.2 1.4.3 2.1.3.7 0 1.4-.1 2.1-.3.3-.1.6-.2.9-.4 3.2-1.5 8.3-4.5 12-10.1 2.5-3.7 2.5-8.5 2.5-8.5s-2.3.8-3.4 3.2zM174 43c0 .4-2 1.8-4 1.9 0 0-.1-.2-.3-1-.1-.3-.2-.5-.4-.5-.7-.2-1.7-.1-1.8.6-.1.8-.3 1-.3 1-2-.1-4-1.4-4-1.9 0-.4-.1-3.6 0-4.4.1-.6 4.7-.1 5.3-.1.6.1 5.2-.4 5.3.1.3.7.2 3.9.2 4.3z"/><g class="st28"><path class="st0" d="M155.7 24.1c-1 .1-1.9.9-2 1.9v1.3c0 1.1.1 2.2.2 3.1.1 1 1 1.8 2.2 1.8l7.7-.2c1.1 0 2.1-.9 2.1-2v-3.7s-.2-2.1-3.8-2.3c-2.3-.2-4.8-.1-6.4.1z"/></g><g class="st28"><path class="st0" d="M181.2 24.1c1 .1 1.9.9 2 1.9v1.3c0 1.1-.1 2.2-.2 3.1-.1 1-1 1.8-2.2 1.8l-7.7-.2c-1.1 0-2.1-.9-2.1-2v-3.7s.2-2.1 3.8-2.3c2.4-.2 4.9-.1 6.4.1z"/></g><path class="st81" d="M165.8 27.3c1.1-.2 3.4-.4 5.6.2.3.1.7-.1.8-.4.1-.3 0-.7-.3-.9-1-.5-3.2-1.3-6.5-.4-.4.1-.6.5-.5.9l.1.2c.2.3.5.5.8.4z"/><g><path class="st134" d="M201.7 138.7l13.4-3.4s11.7-3.3 13.5 1.3c1.3 3.4-.9 14.2-9.9 14.2 0 0-15.5-.4-18.3-3.2-2.8-2.8-2.1-8.5 1.3-8.9z"/><path class="st135" d="M207.4 137.2l1.2-.3c.8 2.3 1.1 6.3-2 12.9-.4-.1-.9-.2-1.3-.2 3.2-6.6 2.9-10.5 2.1-12.4zm3.3-.8l1.3-.3c1 2.2 1.7 6.5-2.1 14.1-.4-.1-.9-.1-1.3-.2 3.9-7.7 3-11.9 2.1-13.6z"/><path class="st135" d="M213.8 135.6l1.2-.3h.1c1.1 1.9 2.5 6.5-2.1 15.3-.4 0-.9-.1-1.4-.1 5-9.3 3.2-13.6 2.2-14.9z"/><path class="st135" d="M216.9 134.8c.4-.1.9-.2 1.4-.3 1.2 1.6 3.2 6.4-2 16.2-.4 0-.9 0-1.4-.1 6.5-11.7 2.1-15.7 2-15.8z"/><path class="st135" d="M220.4 134.6c-.1-.1-.2-.2-.2-.3.5-.1 1-.1 1.5-.1 1.2 1.5 3.6 6.3-2.1 16.6h-1.4c6.8-12 2.3-16.1 2.2-16.2z"/><path class="st24" d="M191.4 146.3l10.6 1.5c1.8-.8 2.6-5.7 1.2-8.6 0 0-10.6-3.5-10.6-3.3 0 .3-1.2 10.4-1.2 10.4z"/><path class="st136" d="M197 127.1h-54.9c-1.7 0-3.2-1.2-3.2-2.8l-1.3-28.9c-.1-1.7 1.4-3 3.2-3h54.9c1.7 0 3.2 1.2 3.2 2.8l1.3 28.9c.2 1.6-1.3 3-3.2 3z"/><path d="M196 128h-54.9c-1.7 0-3.2-1.2-3.2-2.8l-1.3-28.9c-.1-1.7 1.4-3 3.2-3h54.9c1.7 0 3.2 1.2 3.2 2.8l1.3 28.9c.2 1.6-1.3 3-3.2 3z" fill="#f2f2f2"/><path class="st136" d="M137.1 107s12.6 4.7 17.1 6.9c4.5 2.2 6.8 2.7 8.8 2.8s2.5.6 5.7.8 2.6 0 6.9-1.7c4.3-1.7 23-6.9 23-6.9l-2.4 13.7s-37.2 6.5-37.5 6.5c-.3 0-21.5-19.4-21.5-19.4l-.1-2.7z"/><ellipse class="st136" cx="165.7" cy="111.4" rx="4.9" ry="4.4"/><path d="M192.3 136.2s-45.7-28.2-69.2-33.4c-3.3-.7-6.8.2-9.5 2.4l-2.7 2.2c-5.3 4.4-4.8 15.5 1.1 18.8.1.1.3.2.5.2 15.2 7.5 52.3 21 78 21.6.9-1.8 2.3-5.7 1.8-11.8z" fill="#292e3d"/><g><path class="st134" d="M135.3 138.7l-13.4-3.4s-11.7-3.3-13.5 1.3c-1.3 3.4.9 14.2 9.9 14.2 0 0 15.5-.4 18.3-3.2 2.7-2.8 2-8.5-1.3-8.9z"/><path class="st135" d="M129.5 137.2l-1.2-.3c-.8 2.3-1.1 6.3 2 12.9.4-.1.9-.2 1.3-.2-3.2-6.6-2.8-10.5-2.1-12.4zm-3.3-.8l-1.2-.4c-1 2.2-1.7 6.5 2.1 14.1.4-.1.9-.1 1.3-.2-4-7.6-3-11.8-2.2-13.5z"/><path class="st135" d="M123.1 135.6l-1.2-.3h-.1c-1.1 1.9-2.5 6.5 2.1 15.3.4 0 .9-.1 1.4-.1-5-9.3-3.2-13.6-2.2-14.9z"/><path class="st135" d="M120 134.8c-.4-.1-.9-.2-1.4-.3-1.2 1.6-3.2 6.4 2 16.2.4 0 .9 0 1.4-.1-6.5-11.7-2.1-15.7-2-15.8z"/><path class="st135" d="M116.5 134.6c.1-.1.2-.2.2-.3-.5-.1-1-.1-1.5-.1-1.2 1.5-3.6 6.3 2.1 16.6h1.4c-6.8-12-2.3-16.1-2.2-16.2z"/><path class="st24" d="M145.7 146.3l-10.6 1.5c-1.8-.8-2.6-5.7-1.2-8.6 0 0 10.6-3.5 10.6-3.3 0 .3 1.2 10.4 1.2 10.4z"/><path class="st138" d="M144.7 134.8s45.7-25.5 69.2-30.7c3.3-.7 6.9-1.1 9.7 1.2l2.7 2.2c5.3 4.4 4.8 15.5-1.1 18.8-.1.1-.3.2-.5.2-15.2 7.5-52.3 21-78 21.6-1-1.9-2.6-7.2-2-13.3z"/></g></g><g><path class="st138" d="M13.4 33.9c.1 0 .1 0 .2.1.1 0 .1.1.2.1l.2.2 6.9 8.8v-9.2h2.2V47h-1.3c-.2 0-.4 0-.5-.1-.1-.1-.3-.2-.4-.3L14 37.9V47h-2.2V33.9h1.6zm15.9 3.7c.6 0 1.1.1 1.6.3s.9.5 1.3.8.6.8.8 1.3c.2.5.3 1.1.3 1.8v.4c0 .1 0 .2-.1.3s-.1.1-.2.1h-6.1c.1 1 .3 1.7.8 2.1.4.4 1 .7 1.8.7.4 0 .7 0 .9-.1.3-.1.5-.2.7-.3.2-.1.4-.2.5-.3.1-.1.3-.1.4-.1.1 0 .2 0 .2.1.1 0 .1.1.2.2l.7.8c-.2.3-.5.5-.8.7s-.6.4-1 .5c-.3.1-.7.2-1 .2-.3 0-.7.1-1 .1-.6 0-1.2-.1-1.8-.3-.6-.2-1-.5-1.5-1-.4-.4-.7-.9-1-1.6-.2-.6-.4-1.3-.4-2.2 0-.6.1-1.2.3-1.8.2-.6.5-1 .9-1.5.4-.4.9-.7 1.4-1 .8-.1 1.4-.2 2.1-.2zm.1 1.6c-.7 0-1.2.2-1.5.6s-.6.9-.7 1.6h4.2c0-.3 0-.6-.1-.8-.1-.3-.2-.5-.4-.7-.2-.2-.4-.3-.6-.5-.3-.2-.6-.2-.9-.2zm9.6-1.6c.6 0 1.1.1 1.6.3s.9.5 1.3.8.6.8.8 1.3c.2.5.3 1.1.3 1.8v.4c0 .1 0 .2-.1.3s-.1.1-.2.1h-6.1c.1 1 .3 1.7.8 2.1.4.4 1 .7 1.8.7.4 0 .7 0 .9-.1.3-.1.5-.2.7-.3.2-.1.4-.2.5-.3.1-.1.3-.1.4-.1.1 0 .2 0 .2.1.1 0 .1.1.2.2l.7.8c-.2.3-.5.5-.8.7s-.6.4-1 .5c-.3.1-.7.2-1 .2-.3 0-.7.1-1 .1-.6 0-1.2-.1-1.8-.3-.6-.2-1-.5-1.5-1-.4-.4-.7-.9-1-1.6-.2-.6-.4-1.3-.4-2.2 0-.6.1-1.2.3-1.8.2-.6.5-1 .9-1.5.4-.4.9-.7 1.4-1 .8-.1 1.4-.2 2.1-.2zm.1 1.6c-.7 0-1.2.2-1.5.6s-.6.9-.7 1.6H41c0-.3 0-.6-.1-.8-.1-.3-.2-.5-.4-.7-.2-.2-.4-.3-.6-.5-.2-.2-.5-.2-.8-.2zM51.4 47c-.3 0-.5-.1-.6-.4l-.2-.9-.6.6c-.2.2-.4.3-.7.5-.2.1-.5.2-.8.3-.3.1-.6.1-.9.1-.5 0-1-.1-1.4-.3s-.8-.5-1.1-.9c-.3-.4-.5-.9-.7-1.5-.2-.6-.2-1.3-.2-2s.1-1.3.3-1.9c.2-.6.5-1.1.8-1.5.4-.4.8-.8 1.3-1s1-.4 1.7-.4c.5 0 1 .1 1.3.2.4.2.7.4 1 .7v-4.9h2.2V47h-1.4zm-3-1.6c.5 0 .9-.1 1.2-.3.3-.2.6-.5.9-.8v-4.2c-.3-.3-.5-.5-.8-.7-.3-.1-.6-.2-1-.2-.3 0-.6.1-.9.2-.3.1-.5.3-.7.6-.2.3-.3.6-.4 1-.1.4-.2.9-.2 1.4 0 .5 0 1 .1 1.4.1.4.2.7.4.9s.4.4.6.5c.3.1.5.2.8.2zM69.9 47h-2.5v-5.7h-6.2V47h-2.5V33.9h2.5v5.6h6.2v-5.6h2.5V47zm6.4-9.4c.6 0 1.1.1 1.6.3s.9.5 1.3.8.6.8.8 1.3c.2.5.3 1.1.3 1.8v.4c0 .1 0 .2-.1.3s-.1.1-.2.1h-6.1c.1 1 .3 1.7.8 2.1.4.4 1 .7 1.8.7.4 0 .7 0 .9-.1.3-.1.5-.2.7-.3.2-.1.4-.2.5-.3.1-.1.3-.1.4-.1.1 0 .2 0 .2.1.1 0 .1.1.2.2l.7.8c-.2.3-.5.5-.8.7s-.6.4-1 .5c-.3.1-.7.2-1 .2-.3 0-.7.1-1 .1-.6 0-1.2-.1-1.8-.3-.6-.2-1-.5-1.5-1-.4-.4-.7-.9-1-1.6-.2-.6-.4-1.3-.4-2.2 0-.6.1-1.2.3-1.8.2-.6.5-1 .9-1.5.4-.4.9-.7 1.4-1 .8-.1 1.4-.2 2.1-.2zm0 1.6c-.7 0-1.2.2-1.5.6s-.6.9-.7 1.6h4.2c0-.3 0-.6-.1-.8-.1-.3-.2-.5-.4-.7-.2-.2-.4-.3-.6-.5-.2-.2-.5-.2-.9-.2zm8.2-5.7V47h-2.2V33.5h2.2zm2.6 16.6V37.7h1.4c.1 0 .3 0 .4.1.1.1.2.2.2.3l.2.9c.4-.4.8-.8 1.3-1 .5-.3 1.1-.4 1.7-.4.5 0 1 .1 1.4.3.4.2.8.5 1.1.9.3.4.5.9.7 1.5.2.6.2 1.3.2 2s-.1 1.3-.3 1.9-.5 1.1-.8 1.5c-.3.4-.8.8-1.3 1-.5.2-1 .4-1.7.4-.5 0-1-.1-1.3-.2s-.7-.4-1-.7V50h-2.2zm4.3-10.8c-.5 0-.9.1-1.2.3-.3.2-.6.5-.9.8v4.2c.3.3.5.5.8.7s.6.2 1 .2c.3 0 .6-.1.9-.2.3-.1.5-.3.7-.6.2-.3.3-.6.4-1s.2-.9.2-1.4c0-.5 0-1-.1-1.4s-.2-.7-.4-.9c-.2-.2-.4-.4-.6-.5-.2-.1-.5-.2-.8-.2zm5.1-4.2c.2-.2.4-.4.7-.5.2-.2.5-.3.8-.4l.9-.3c.3-.1.7-.1 1.1-.1.5 0 1 .1 1.4.2s.8.4 1.1.6c.3.3.5.6.7 1 .2.4.3.8.3 1.3s-.1.9-.2 1.2c-.1.3-.3.6-.5.9-.2.2-.4.5-.7.6s-.5.4-.7.5-.4.3-.5.5c-.2.2-.2.3-.3.5l-.2 1.3h-1.5l-.2-1.5v-.2c0-.3.1-.5.2-.7.1-.2.3-.4.5-.6.2-.2.4-.3.6-.5.2-.2.4-.3.6-.5.2-.2.4-.4.5-.6s.2-.5.2-.9c0-.2 0-.4-.1-.6-.1-.2-.2-.3-.3-.4-.1-.1-.3-.2-.5-.3-.2-.1-.4-.1-.7-.1-.3 0-.6 0-.9.1l-.6.3c-.2.1-.3.2-.4.3-.1.1-.2.1-.3.1-.2 0-.4-.1-.5-.3l-.5-.9zm1.7 10.7c0-.2 0-.4.1-.5.1-.2.2-.3.3-.4s.3-.2.4-.3c.2-.1.4-.1.5-.1.2 0 .4 0 .5.1.2.1.3.2.4.3s.2.3.3.4c.1.2.1.3.1.5s0 .4-.1.5c-.1.2-.2.3-.3.4-.1.1-.3.2-.4.3-.2.1-.3.1-.5.1s-.4 0-.5-.1c-.2-.1-.3-.2-.4-.3-.1-.1-.2-.3-.3-.4-.1-.1-.1-.3-.1-.5zM16.6 56.4c0 .1-.1.1-.1.1h-.2c-.1 0-.2 0-.3-.1-.1-.1-.2-.2-.4-.2-.2-.1-.3-.2-.6-.2-.2-.1-.5-.1-.8-.1-.3 0-.5 0-.8.1l-.6.3c-.1.1-.3.3-.3.5s-.1.4-.1.6c0 .3.1.5.2.7.1.2.3.3.5.4.2.1.5.2.7.3s.6.2.8.3.6.2.8.3.5.3.7.5c.2.2.4.4.5.7s.2.6.2 1-.1.8-.2 1.2c-.1.4-.3.7-.6 1-.3.3-.6.5-1 .6-.4.2-.8.2-1.4.2-.6 0-1.2-.1-1.7-.3s-.9-.5-1.3-.9l.4-.6.1-.1h.2c.1 0 .2 0 .3.1.1.1.3.2.4.3.2.1.4.2.7.3s.6.1.9.1c.3 0 .6 0 .8-.1.2-.1.4-.2.6-.4.2-.2.3-.3.4-.5.1-.2.1-.5.1-.7 0-.3-.1-.5-.2-.7-.1-.2-.3-.3-.5-.5s-.5-.2-.7-.3c-.3-.1-.6-.2-.8-.3s-.6-.2-.8-.3c-.3-.1-.5-.3-.7-.5s-.4-.4-.5-.7-.2-.6-.2-1.1c0-.3.1-.7.2-1 .1-.3.3-.6.6-.8l.9-.6c.3-.2.8-.2 1.3-.2s1 .1 1.5.3c.4.2.8.4 1.2.7l-.2.6zm2 10.4v-9h.7c.2 0 .3.1.3.2l.1.8c.3-.4.6-.6 1-.8.4-.2.8-.3 1.3-.3.4 0 .7.1 1.1.2s.6.4.8.7c.2.3.4.7.5 1.1.1.4.2.9.2 1.5 0 .5-.1 1-.2 1.4-.1.4-.3.8-.6 1.1-.2.3-.6.6-.9.7s-.8.3-1.2.3c-.4 0-.8-.1-1.1-.2s-.6-.5-.9-.7v3h-1.1zm3-8.2c-.4 0-.7.1-1 .3-.3.2-.6.4-.8.8V63c.2.3.5.5.7.6.3.1.5.2.9.2.6 0 1.1-.2 1.4-.7.3-.4.5-1.1.5-1.9 0-.4 0-.8-.1-1.1-.1-.3-.2-.6-.3-.8-.1-.2-.3-.3-.5-.4-.3-.3-.6-.3-.8-.3zm7-1c.4 0 .8.1 1.1.2.3.1.6.3.9.6l.6.9c.2.3.2.8.2 1.3 0 .2 0 .3-.1.4 0 .1-.1.1-.2.1h-4.5c0 .4.1.8.2 1.1.1.3.3.6.4.8.2.2.4.4.7.5.3.1.5.2.9.2.3 0 .6 0 .8-.1s.4-.1.6-.2c.2-.1.3-.2.4-.2.1-.1.2-.1.3-.1.1 0 .2 0 .2.1l.3.4c-.1.2-.3.3-.5.5s-.4.2-.7.3c-.2.1-.5.1-.7.2-.2 0-.5.1-.7.1-.5 0-.9-.1-1.3-.2-.4-.2-.7-.4-1-.7s-.5-.7-.7-1.1c-.2-.4-.2-1-.2-1.5s.1-.9.2-1.3.4-.8.6-1.1c.3-.3.6-.5 1-.7.2-.4.7-.5 1.2-.5zm0 .9c-.6 0-1 .2-1.4.5-.3.3-.5.8-.6 1.4h3.7c0-.3 0-.5-.1-.8l-.3-.6c-.1-.2-.3-.3-.5-.4-.3-.1-.5-.1-.8-.1zm9.2 6h-.5c-.1 0-.2 0-.3-.1-.1 0-.1-.1-.1-.2l-.1-.6c-.2.2-.4.3-.5.4-.2.1-.3.2-.5.3-.2.1-.4.2-.6.2s-.4.1-.7.1c-.3 0-.5 0-.7-.1l-.6-.3c-.2-.1-.3-.3-.4-.6s-.1-.5-.1-.8c0-.3.1-.5.2-.8s.4-.5.7-.7.8-.3 1.3-.5c.5-.1 1.2-.2 1.9-.2v-.5c0-.5-.1-.9-.3-1.2-.2-.3-.6-.4-1-.4-.3 0-.5 0-.7.1s-.4.2-.5.2c-.1.1-.3.2-.4.2-.1.1-.2.1-.3.1-.1 0-.1 0-.2-.1-.1 0-.1-.1-.1-.2l-.2-.4c.4-.4.8-.6 1.2-.8.4-.2.9-.3 1.4-.3.4 0 .7.1 1 .2.3.1.5.3.7.5.2.2.4.5.5.8.1.3.2.7.2 1v4.7zm-3-.8c.2 0 .4 0 .6-.1s.3-.1.5-.2.3-.2.4-.3c.1-.1.3-.2.4-.4v-1.4c-.5 0-1 0-1.4.1-.4.1-.7.2-.9.3-.2.1-.4.2-.5.4-.1.2-.2.3-.2.5s0 .3.1.5c.1.1.1.2.2.3.1.1.2.1.3.2.2.1.3.1.5.1zm6.1-9v5.8h.5l.2-.2 2.1-2.3.2-.2c.1 0 .2-.1.3-.1h1.1l-2.5 2.6-.2.2-.2.2c.1.1.2.1.2.2l.2.2 2.6 3.3h-1.1c-.1 0-.2 0-.2-.1-.1 0-.1-.1-.2-.2l-2.2-2.8c-.1-.1-.1-.2-.2-.2h-.6v3.2h-1.2v-9.8h1.2zm10.3 9.9c-.5 0-.9-.1-1.2-.4-.3-.3-.4-.7-.4-1.3v-4.1h-.8c-.1 0-.1 0-.2-.1 0 0-.1-.1-.1-.2V58l1.1-.1.3-2.1c0-.1 0-.1.1-.2s.1-.1.2-.1h.6v2.3h1.9v.9h-1.9v4c0 .3.1.5.2.6s.3.2.5.2h.3c.1 0 .2-.1.2-.1s.1-.1.2-.1h.1c.1 0 .1 0 .2.1l.3.6c-.2.2-.5.3-.7.4-.3.1-.6.2-.9.2zm5.7-7c.5 0 .9.1 1.3.2.4.2.7.4 1 .7.3.3.5.7.6 1.1.1.4.2.9.2 1.4 0 .5-.1 1-.2 1.4s-.4.8-.6 1.1-.6.5-1 .7c-.4.2-.8.2-1.3.2s-.9-.1-1.3-.2c-.4-.2-.7-.4-1-.7s-.6-.5-.7-1c-.2-.4-.2-.9-.2-1.4 0-.5.1-1 .2-1.4.2-.4.4-.8.6-1.1.3-.3.6-.5 1-.7.4-.2.9-.3 1.4-.3zm0 6c.7 0 1.2-.2 1.5-.7.3-.4.5-1.1.5-1.9 0-.8-.2-1.4-.5-1.9-.3-.4-.8-.7-1.5-.7-.3 0-.6.1-.9.2-.2.1-.5.3-.6.5-.2.2-.3.5-.4.8s-.1.7-.1 1.1c0 .4 0 .8.1 1.1.1.3.2.6.4.8.2.2.4.4.6.5.2.2.5.2.9.2zm8.2-5.9V62c0 .5.1.9.4 1.2s.6.4 1.1.4c.3 0 .7-.1 1-.2.3-.2.6-.4.8-.7v-5h1.2v6.7h-.7c-.2 0-.3-.1-.3-.2l-.1-.7c-.3.3-.6.6-1 .8-.4.2-.8.3-1.3.3-.4 0-.7-.1-1-.2-.3-.1-.5-.3-.7-.5s-.3-.5-.4-.8c-.1-.3-.1-.7-.1-1v-4.3h1.1zm10.3 1.1c-.1.1-.1.1-.2.1s-.1 0-.2-.1c-.1 0-.2-.1-.3-.2s-.3-.1-.4-.2c-.2-.1-.4-.1-.6-.1-.2 0-.4 0-.5.1-.2.1-.3.1-.4.2l-.3.3c-.1.1-.1.2-.1.4s0 .3.1.4.2.2.4.3c.2.1.3.2.6.2.2.1.4.1.6.2.2.1.4.2.6.2l.6.3c.2.1.3.3.4.5.1.2.1.4.1.7 0 .3-.1.6-.2.9-.1.3-.3.5-.5.7-.2.2-.5.3-.8.5-.3.1-.7.2-1.1.2-.5 0-.9-.1-1.3-.2s-.7-.3-1-.6l.3-.5c0-.1.1-.1.1-.1h.2c.1 0 .2 0 .3.1.1.1.2.1.3.2.1.1.3.1.5.2s.4.1.7.1c.2 0 .4 0 .6-.1s.3-.1.4-.2c.1-.1.2-.2.3-.4s.1-.3.1-.4c0-.2 0-.3-.1-.5s-.2-.2-.4-.3c-.2-.1-.4-.2-.6-.2-.2-.1-.4-.1-.6-.2s-.4-.2-.6-.2l-.6-.3c-.2-.1-.3-.3-.4-.5-.1-.2-.2-.4-.2-.7 0-.3.1-.5.2-.7.1-.2.3-.4.5-.6s.5-.3.8-.4c.3-.1.6-.2 1-.2s.8.1 1.2.2.7.3.9.6l-.4.3zm4.4 5.7v-9.8H81v4c.3-.3.6-.6 1-.7.3-.2.8-.3 1.2-.3.4 0 .7.1 1 .2.3.1.5.3.7.5s.3.5.4.8c.1.3.1.7.1 1v4.3h-1.2v-4.3c0-.5-.1-.9-.3-1.2-.2-.3-.6-.4-1.1-.4-.3 0-.7.1-1 .3-.3.2-.6.4-.8.7v5h-1.2zm10.1-6.9c.4 0 .8.1 1.1.2.3.1.6.3.9.6l.6.9c.2.3.2.8.2 1.3 0 .2 0 .3-.1.4 0 .1-.1.1-.2.1h-4.5c0 .4.1.8.2 1.1.1.3.3.6.4.8.2.2.4.4.7.5.3.1.5.2.9.2.3 0 .6 0 .8-.1s.4-.1.6-.2c.2-.1.3-.2.4-.2 0-.2.1-.2.2-.2s.2 0 .2.1l.3.4c-.1.2-.3.3-.5.5s-.4.2-.7.3c-.2.1-.5.1-.7.2-.2 0-.5.1-.7.1-.5 0-.9-.1-1.3-.2-.4-.2-.7-.4-1-.7s-.5-.7-.7-1.2c-.2-.4-.2-1-.2-1.5s.1-.9.2-1.3.4-.8.6-1.1c.3-.3.6-.5 1-.7.4-.2.8-.3 1.3-.3zm0 .9c-.6 0-1 .2-1.4.5-.3.3-.5.8-.6 1.4h3.7c0-.3 0-.5-.1-.8l-.3-.6c-.1-.2-.3-.3-.5-.4-.3-.1-.5-.1-.8-.1zm4.3 6v-6.7h.7c.1 0 .2 0 .3.1s.1.1.1.3l.1 1.1c.2-.5.5-.8.9-1.1.3-.3.7-.4 1.2-.4.2 0 .4 0 .5.1.2 0 .3.1.4.2l-.2.9c0 .1-.1.2-.2.2s-.2 0-.3-.1c-.1 0-.3-.1-.5-.1-.4 0-.8.1-1 .4-.3.2-.5.6-.7 1v4.3h-1.3zm8-6.9c.4 0 .8.1 1.1.2.3.1.6.3.9.6l.6.9c.2.3.2.8.2 1.3 0 .2 0 .3-.1.4 0 .1-.1.1-.2.1h-4.5c0 .4.1.8.2 1.1.1.3.3.6.4.8.2.2.4.4.7.5.3.1.5.2.9.2.3 0 .6 0 .8-.1s.4-.1.6-.2c.2-.1.3-.2.4-.2.1-.1.2-.1.3-.1.1 0 .2 0 .2.1l.3.4c-.1.2-.3.3-.5.5s-.4.2-.7.3c-.2.1-.5.1-.7.2-.2 0-.5.1-.7.1-.5 0-.9-.1-1.3-.2-.4-.2-.7-.4-1-.7s-.5-.7-.7-1.1c-.2-.4-.2-1-.2-1.5s.1-.9.2-1.3.4-.8.6-1.1c.3-.3.6-.5 1-.7.3-.4.8-.5 1.2-.5zm.1.9c-.6 0-1 .2-1.4.5-.3.3-.5.8-.6 1.4h3.7c0-.3 0-.5-.1-.8l-.3-.6c-.1-.2-.3-.3-.5-.4-.3-.1-.6-.1-.8-.1zm4.7 5.2c0-.1 0-.2.1-.3 0-.1.1-.2.2-.3s.2-.1.3-.2c.1 0 .2-.1.3-.1s.2 0 .3.1c.1 0 .2.1.3.2.1.1.1.2.2.3 0 .1.1.2.1.3 0 .1 0 .2-.1.3s-.1.2-.2.3c-.1.1-.2.1-.3.2-.1 0-.2.1-.3.1s-.2 0-.3-.1c-.1 0-.2-.1-.3-.2s-.1-.2-.2-.3-.1-.1-.1-.3zm1.4-8.8v5.6c0 .2 0 .4-.1.6h-.8c0-.2 0-.4-.1-.6V54.9h1z"/></g></g></svg>