<svg width="100%" height="100%" viewBox="0 0 322 263" fill="none" xmlns="http://www.w3.org/2000/svg" preserveAspectRatio="none">
<mask id="mask0_1567_5142" style="mask-type:alpha" maskUnits="userSpaceOnUse" x="0" y="0" width="322" height="263" >
<rect width="322" height="263" rx="18" fill="white"/>
</mask>
<g mask="url(#mask0_1567_5142)">
<path d="M-9.43687 23.0001L-8.68852 111.524L21.0578 85.158L21.0648 50.0351L-9.43687 23.0001Z" fill="url(#paint0_linear_1567_5142)"/>
<path d="M251.524 274H248.224C248.223 260.505 250.878 247.14 256.037 234.664C261.208 222.203 268.78 210.874 278.326 201.322C287.866 191.784 299.194 184.211 311.664 179.032C324.134 173.876 337.501 171.223 351 171.224V174.516C337.934 174.521 324.996 177.096 312.929 182.094C300.852 187.103 289.882 194.434 280.643 203.668C271.405 212.914 264.075 223.877 259.068 235.937C254.083 248.011 251.52 260.943 251.524 274Z" fill="#DEECF5"/>
<path d="M328.19 159.239C320.662 160.731 313.3 162.962 306.212 165.899C292.017 171.796 279.123 180.421 268.266 191.282C257.402 202.152 248.782 215.043 242.896 229.224C239.958 236.312 237.728 243.672 236.237 251.197C234.754 258.708 234.005 266.345 234 274H237.297C237.302 266.56 238.031 259.137 239.474 251.837C240.918 244.526 243.081 237.374 245.931 230.485C251.652 216.704 260.029 204.176 270.587 193.612C281.139 183.063 293.669 174.687 307.462 168.96C314.356 166.101 321.517 163.93 328.84 162.478C336.138 161.037 343.56 160.309 351 160.304V157C343.342 157.005 335.703 157.755 328.19 159.239Z" fill="#DEECF5"/>
<path d="M273.144 196.137C262.914 206.368 254.798 218.503 249.255 231.854C243.726 245.221 240.882 259.54 240.882 274H244.19C244.195 259.974 246.96 246.086 252.326 233.123C257.7 220.173 265.568 208.402 275.485 198.476C285.395 188.565 297.163 180.695 310.118 175.315C323.077 169.95 336.97 167.19 351 167.193V163.882C336.538 163.882 322.217 166.727 308.858 172.254C295.499 177.803 283.365 185.917 273.144 196.137Z" fill="#DEECF5"/>
<path d="M283.193 206.184C274.286 215.097 267.22 225.668 262.393 237.296C257.582 248.938 255.106 261.408 255.106 274H258.418C258.414 261.843 260.805 249.803 265.455 238.565C270.112 227.341 276.935 217.139 285.535 208.539C294.129 199.944 304.334 193.119 315.568 188.453C326.8 183.807 338.84 181.415 351 181.414V178.106C338.405 178.105 325.934 180.582 314.3 185.395C302.666 190.225 292.097 197.288 283.193 206.184Z" fill="#DEECF5"/>
<path d="M288.385 211.382C280.16 219.613 273.634 229.375 269.178 240.113C264.732 250.86 262.445 262.374 262.447 274H265.752C265.744 262.81 267.938 251.726 272.209 241.378C276.499 231.041 282.781 221.644 290.699 213.72C298.614 205.806 308.012 199.522 318.358 195.226C328.705 190.946 339.798 188.744 351 188.747V185.447C339.37 185.445 327.854 187.732 317.112 192.176C306.367 196.638 296.606 203.163 288.385 211.382Z" fill="#DEECF5"/>
<path d="M293.249 216.251C285.664 223.843 279.645 232.846 275.534 242.749C271.438 252.661 269.33 263.279 269.329 274H272.643C272.64 263.714 274.662 253.528 278.593 244.018C282.538 234.515 288.313 225.877 295.592 218.592C302.868 211.318 311.506 205.542 321.016 201.593C330.522 197.662 340.71 195.639 351 195.639V192.33C340.275 192.327 329.655 194.434 319.748 198.53C309.836 202.648 300.833 208.669 293.249 216.251Z" fill="#DEECF5"/>
</g>
<defs>
<linearGradient id="paint0_linear_1567_5142" x1="-34.2184" y1="44.9651" x2="16.2148" y2="100.173" gradientUnits="userSpaceOnUse">
<stop stop-color="#96D4FF"/>
<stop offset="1" stop-color="#D8ECFA" stop-opacity="0"/>
</linearGradient>
</defs>
</svg>
