<svg width="100%" height="100%" viewBox="0 0 1440 692" fill="none" xmlns="http://www.w3.org/2000/svg" preserveAspectRatio="none">
<g clip-path="url(#clip0_1578_5157)">
<path d="M1440 0H0V692H1440V0Z" fill="#00399E"/>
<path d="M1440 0H0V692H1440V0Z" fill="url(#paint0_radial_1578_5157)"/>
<path style="mix-blend-mode:overlay" d="M1440.07 0.115723L423.565 1015.95H1033.64L1440.07 615.973V0.115723Z" fill="url(#paint1_linear_1578_5157)"/>
<path style="mix-blend-mode:overlay" d="M196.528 -660L-820 355.858H-209.921L196.528 -44.1222V-660Z" fill="url(#paint2_linear_1578_5157)"/>
<path style="mix-blend-mode:soft-light" opacity="0.61" d="M-50.6604 1032.07L1005.06 0.620723L1219.71 0.115723L-50.6604 1263.57V1032.07Z" fill="url(#paint3_linear_1578_5157)"/>
<path style="mix-blend-mode:soft-light" d="M-212.832 678.19L533.384 -73.2505H759.288L-212.832 929.074V678.19Z" fill="url(#paint4_linear_1578_5157)"/>
<path style="mix-blend-mode:soft-light" d="M214.276 1122.1L960.491 370.645H1186.4L214.276 1372.97V1122.1Z" fill="url(#paint5_linear_1578_5157)"/>
<g style="mix-blend-mode:overlay" opacity="0.83">
<path style="mix-blend-mode:overlay" d="M642.071 -361.828C651.755 -361.839 661.346 -359.937 670.293 -356.231C679.239 -352.526 687.364 -347.089 694.201 -340.234C701.055 -333.389 706.492 -325.261 710.201 -316.315C713.911 -307.369 715.82 -297.781 715.82 -288.098C715.82 -278.414 713.911 -268.826 710.201 -259.88C706.492 -250.934 701.055 -242.807 694.201 -235.961L176.942 281.017C163.105 294.845 144.339 302.613 124.771 302.613C105.203 302.613 86.437 294.845 72.6005 281.017C58.764 267.19 50.9907 248.436 50.9907 228.881C50.9907 209.326 58.764 190.572 72.6005 176.745L589.92 -340.234C596.758 -347.092 604.887 -352.531 613.837 -356.237C622.787 -359.943 632.383 -361.843 642.071 -361.828Z" fill="url(#paint6_linear_1578_5157)"/>
</g>
<g style="mix-blend-mode:overlay">
<path style="mix-blend-mode:overlay" d="M1577.02 -234.992C1586.71 -235.006 1596.31 -233.105 1605.26 -229.399C1614.21 -225.693 1622.35 -220.255 1629.19 -213.398C1643.02 -199.569 1650.79 -180.815 1650.79 -161.262C1650.79 -141.709 1643.02 -122.956 1629.19 -109.126L1111.87 407.833C1105.02 414.68 1096.89 420.113 1087.94 423.82C1078.99 427.527 1069.39 429.436 1059.7 429.438C1050.01 429.44 1040.42 427.535 1031.47 423.831C1022.51 420.127 1014.38 414.698 1007.53 407.853C1000.68 401.007 995.239 392.88 991.53 383.935C987.82 374.991 985.91 365.403 985.908 355.721C985.906 346.038 987.813 336.45 991.519 327.504C995.225 318.557 1000.66 310.428 1007.51 303.58L1524.85 -213.398C1531.69 -220.255 1539.82 -225.693 1548.78 -229.399C1557.73 -233.105 1567.33 -235.006 1577.02 -234.992Z" fill="url(#paint7_linear_1578_5157)"/>
</g>
<g style="mix-blend-mode:overlay">
<path style="mix-blend-mode:overlay" d="M1387.86 -454.647C1397.56 -454.661 1407.16 -452.761 1416.12 -449.055C1425.08 -445.35 1433.22 -439.911 1440.07 -433.053C1453.91 -419.223 1461.68 -400.47 1461.68 -380.917C1461.68 -361.364 1453.91 -342.61 1440.07 -328.781L922.713 188.198C908.876 202.025 890.11 209.793 870.542 209.793C850.974 209.793 832.208 202.025 818.372 188.198C804.535 174.371 796.762 155.617 796.762 136.062C796.762 116.507 804.535 97.7529 818.372 83.9255L1335.69 -433.053C1342.54 -439.907 1350.67 -445.342 1359.62 -449.048C1368.58 -452.753 1378.17 -454.656 1387.86 -454.647Z" fill="url(#paint8_linear_1578_5157)"/>
</g>
<g style="mix-blend-mode:overlay" opacity="0.36">
<path style="mix-blend-mode:overlay" d="M1537.24 156.116C1546.7 156.115 1555.95 158.914 1563.82 164.157C1571.68 169.4 1577.81 176.852 1581.43 185.571C1585.05 194.29 1586 203.884 1584.15 213.14C1582.31 222.396 1577.75 230.898 1571.06 237.571L1235.72 572.14C1226.75 581.088 1214.59 586.116 1201.9 586.116C1189.22 586.116 1177.05 581.088 1168.08 572.14C1159.11 563.191 1154.07 551.055 1154.07 538.399C1154.07 525.744 1159.11 513.607 1168.08 504.659L1503.44 170.09C1507.87 165.657 1513.14 162.14 1518.94 159.742C1524.75 157.344 1530.96 156.112 1537.24 156.116Z" fill="url(#paint9_linear_1578_5157)"/>
</g>
</g>
<defs>
<radialGradient id="paint0_radial_1578_5157" cx="0" cy="0" r="1" gradientUnits="userSpaceOnUse" gradientTransform="translate(311.232 -93.9598) scale(1786.12 1287.49)">
<stop stop-color="#1D7BFF"/>
<stop offset="1" stop-color="#0044A5"/>
</radialGradient>
<linearGradient id="paint1_linear_1578_5157" x1="1700.99" y1="4.80216" x2="855.647" y2="897.472" gradientUnits="userSpaceOnUse">
<stop stop-color="white"/>
<stop offset="0.07" stop-color="white" stop-opacity="0.84"/>
<stop offset="0.16" stop-color="white" stop-opacity="0.64"/>
<stop offset="0.26" stop-color="white" stop-opacity="0.47"/>
<stop offset="0.36" stop-color="white" stop-opacity="0.33"/>
<stop offset="0.47" stop-color="white" stop-opacity="0.21"/>
<stop offset="0.58" stop-color="white" stop-opacity="0.12"/>
<stop offset="0.7" stop-color="white" stop-opacity="0.05"/>
<stop offset="0.83" stop-color="white" stop-opacity="0.01"/>
<stop offset="1" stop-color="white" stop-opacity="0"/>
</linearGradient>
<linearGradient id="paint2_linear_1578_5157" x1="457.422" y1="-655.293" x2="-387.918" y2="237.376" gradientUnits="userSpaceOnUse">
<stop stop-color="white"/>
<stop offset="1" stop-color="white" stop-opacity="0"/>
</linearGradient>
<linearGradient id="paint3_linear_1578_5157" x1="551.212" y1="586.36" x2="402.913" y2="383.519" gradientUnits="userSpaceOnUse">
<stop offset="0.19" stop-opacity="0"/>
<stop offset="0.67" stop-color="#060606" stop-opacity="0.48"/>
<stop offset="0.7" stop-color="#0F0E0F" stop-opacity="0.63"/>
<stop offset="0.78" stop-color="#1D1B1B" stop-opacity="0.84"/>
<stop offset="0.86" stop-color="#252223" stop-opacity="0.96"/>
<stop offset="1" stop-color="#272425"/>
</linearGradient>
<linearGradient id="paint4_linear_1578_5157" x1="357.973" y1="189.632" x2="-239.898" y2="986.679" gradientUnits="userSpaceOnUse">
<stop offset="0.19" stop-opacity="0"/>
<stop offset="0.67" stop-color="#060606" stop-opacity="0.57"/>
<stop offset="0.7" stop-color="#0F0E0E" stop-opacity="0.68"/>
<stop offset="0.78" stop-color="#1C1A1B" stop-opacity="0.86"/>
<stop offset="0.86" stop-color="#252223" stop-opacity="0.97"/>
<stop offset="1" stop-color="#272425"/>
</linearGradient>
<linearGradient id="paint5_linear_1578_5157" x1="814.632" y1="832.558" x2="-27.3625" y2="978.184" gradientUnits="userSpaceOnUse">
<stop offset="0.19" stop-opacity="0"/>
<stop offset="0.67" stop-color="#060606" stop-opacity="0.57"/>
<stop offset="0.7" stop-color="#0F0E0E" stop-opacity="0.68"/>
<stop offset="0.78" stop-color="#1C1A1B" stop-opacity="0.86"/>
<stop offset="0.86" stop-color="#252223" stop-opacity="0.97"/>
<stop offset="1" stop-color="#272425"/>
</linearGradient>
<linearGradient id="paint6_linear_1578_5157" x1="795.611" y1="-468.403" x2="78.8241" y2="295.629" gradientUnits="userSpaceOnUse">
<stop stop-color="white"/>
<stop offset="1" stop-color="white" stop-opacity="0"/>
</linearGradient>
<linearGradient id="paint7_linear_1578_5157" x1="1730.56" y1="-341.567" x2="1013.77" y2="422.465" gradientUnits="userSpaceOnUse">
<stop stop-color="white"/>
<stop offset="1" stop-color="white" stop-opacity="0"/>
</linearGradient>
<linearGradient id="paint8_linear_1578_5157" x1="1541.4" y1="-561.222" x2="824.615" y2="202.81" gradientUnits="userSpaceOnUse">
<stop stop-color="white"/>
<stop offset="1" stop-color="white" stop-opacity="0"/>
</linearGradient>
<linearGradient id="paint9_linear_1578_5157" x1="1636.79" y1="87.1444" x2="1172.96" y2="582.378" gradientUnits="userSpaceOnUse">
<stop stop-color="white" stop-opacity="0"/>
<stop offset="0.45" stop-color="white" stop-opacity="0.44"/>
<stop offset="1" stop-color="white"/>
</linearGradient>
<clipPath id="clip0_1578_5157">
<rect width="1440" height="692" fill="white"/>
</clipPath>
</defs>
</svg>
